/* XPM */
static char * bottom_right_inactive_xpm[] = {
"8 8 3 1",
" 	c None",
".	c #CC1B1B",
"+	c #C41A1A",
"     ...",
"     ...",
"     ...",
"     ...",
"     ...",
".....+++",
".....+++",
".....+++"};
