/* XPM */
static char * hide_inactive_xpm[] = {
"16 24 76 1",
" 	c None",
".	c #E43333",
"+	c #E43535",
"@	c #E43838",
"#	c #E43A3A",
"$	c #E53C3C",
"%	c #E33131",
"&	c #E32E2E",
"*	c #E32F2F",
"=	c #E43737",
"-	c #E22A2A",
";	c #E22626",
">	c #E32D2D",
",	c #E22828",
"'	c #E32B2B",
")	c #DC1E1E",
"!	c #D71D1D",
"~	c #E22424",
"{	c #E12323",
"]	c #E12121",
"^	c #BF1A1A",
"/	c #D11C1C",
"(	c #E11F1F",
"_	c #DB1D1D",
":	c #C91B1B",
"<	c #A51616",
"[	c #DA1D1D",
"}	c #D91D1D",
"|	c #D41C1C",
"1	c #CA1B1B",
"2	c #931414",
"3	c #C31A1A",
"4	c #D21C1C",
"5	c #D01C1C",
"6	c #340707",
"7	c #CE1C1C",
"8	c #8D1313",
"9	c #A01616",
"0	c #CC1B1B",
"a	c #841212",
"b	c #8B1313",
"c	c #C61B1B",
"d	c #751010",
"e	c #861212",
"f	c #BE1A1A",
"g	c #C51A1A",
"h	c #AE1717",
"i	c #610D0D",
"j	c #BB1919",
"k	c #C01A1A",
"l	c #8A1313",
"m	c #550B0B",
"n	c #AF1818",
"o	c #AA1717",
"p	c #B71919",
"q	c #4B0A0A",
"r	c #720F0F",
"s	c #D51D1D",
"t	c #9B1515",
"u	c #B41818",
"v	c #B61818",
"w	c #540B0B",
"x	c #831212",
"y	c #A41616",
"z	c #7D1111",
"A	c #440909",
"B	c #510B0B",
"C	c #9E1515",
"D	c #741010",
"E	c #6C0F0F",
"F	c #6E0F0F",
"G	c #6B0E0E",
"H	c #480A0A",
"I	c #650E0E",
"J	c #761010",
"K	c #640D0D",
"                ",
"                ",
"                ",
"                ",
"                ",
"....+@#$#+.%....",
"&&*.=@@@@@+-;>&&",
",,'&&&&&&&&')!,,",
"~{]{{{{{{{{{]^/{",
"(____________:<[",
"}||||||||||||123",
"4555666666655789",
"70006666666000ab",
"c1116666666113de",
"fgggggggggggghi2",
"3jkkkkkkkkkk^lmn",
"0opjjjjjjjjj<qr1",
"shtuppppppv9ww<s",
"!5txtyhnotzABt5!",
"!!7CDEFGiBHIC7!!",
"sss/^tJKKJt^/sss",
"                ",
"                ",
"                "};
