/* XPM */
static char * maximize_pressed_xpm[] = {
"16 24 90 1",
" 	c None",
".	c #E22424",
"+	c #E01E1E",
"@	c #C71B1B",
"#	c #921414",
"$	c #5F0D0D",
"%	c #450909",
"&	c #DD1E1E",
"*	c #D11C1C",
"=	c #8D1313",
"-	c #490A0A",
";	c #280505",
">	c #300606",
",	c #400909",
"'	c #4C0A0A",
")	c #500B0B",
"!	c #580C0C",
"~	c #D41C1C",
"{	c #CA1B1B",
"]	c #841212",
"^	c #310707",
"/	c #270505",
"(	c #7E1111",
"_	c #8C1313",
":	c #941414",
"<	c #881212",
"[	c #630D0D",
"}	c #C61B1B",
"|	c #350707",
"1	c #370707",
"2	c #821111",
"3	c #9A1515",
"4	c #9B1515",
"5	c #991515",
"6	c #7A1010",
"7	c #911313",
"8	c #AE1717",
"9	c #530B0B",
"0	c #2E0606",
"a	c #A11616",
"b	c #9C1515",
"c	c #8A1313",
"d	c #B21818",
"e	c #6C0F0F",
"f	c #A51616",
"g	c #A61616",
"h	c #340707",
"i	c #A01515",
"j	c #A21616",
"k	c #710F0F",
"l	c #410909",
"m	c #931414",
"n	c #AB1717",
"o	c #9F1515",
"p	c #650E0E",
"q	c #550B0B",
"r	c #A71717",
"s	c #B01818",
"t	c #6A0E0E",
"u	c #680E0E",
"v	c #B51818",
"w	c #B61919",
"x	c #7D1111",
"y	c #B81919",
"z	c #BD1919",
"A	c #730F0F",
"B	c #B11818",
"C	c #C31A1A",
"D	c #B61818",
"E	c #CC1B1B",
"F	c #811111",
"G	c #C81B1B",
"H	c #D51D1D",
"I	c #A31616",
"J	c #D81D1D",
"K	c #D71D1D",
"L	c #C51A1A",
"M	c #D01C1C",
"N	c #AD1717",
"O	c #E12121",
"P	c #E12323",
"Q	c #CE1C1C",
"R	c #BE1A1A",
"S	c #DA1D1D",
"T	c #E32C2C",
"U	c #E33131",
"V	c #E22A2A",
"W	c #D31C1C",
"X	c #E43434",
"Y	c #E22828",
"                ",
"                ",
"                ",
"                ",
"                ",
"...+@#$%%$#@+...",
"&&*=-;>,')'!=*&&",
"~{]^/$(_:#<([]{~",
"}<|123444444567}",
"890<aaaaaaaaabcd",
"_1efghhhhhhhggij",
"klmnnhhhhhhhnnno",
"pqrsshhssshhsssn",
"tuvwwhhwwwhhwwwv",
"xkyzzhhzzzhhzzzy",
"gABCChhhhhhhCCCD",
"EFdEEhhhhhhhEEG{",
"HIIHJJJJJJJJJKLH",
"KMNEO.......PMMK",
"KKQRSTUUUUUVWQKK",
"HHH*8QOUXY~v*HHH",
"                ",
"                ",
"                "};
