/* XPM */
static char * close_inactive_xpm[] = {
"16 24 93 2",
"  	c None",
". 	c #E22424",
"+ 	c #E22525",
"@ 	c #E22828",
"# 	c #E32D2D",
"$ 	c #E43333",
"% 	c #E43636",
"& 	c #E32C2C",
"* 	c #E22727",
"= 	c #E12323",
"- 	c #DD1E1E",
"; 	c #DE1E1E",
"> 	c #E22626",
", 	c #E33131",
"' 	c #E01E1E",
") 	c #D71D1D",
"! 	c #D41C1C",
"~ 	c #D51D1D",
"{ 	c #E12121",
"] 	c #CC1B1B",
"^ 	c #C11A1A",
"/ 	c #D31C1C",
"( 	c #CB1B1B",
"_ 	c #D11C1C",
": 	c #D81D1D",
"< 	c #A31616",
"[ 	c #B41818",
"} 	c #CA1B1B",
"| 	c #C71B1B",
"1 	c #B21818",
"2 	c #841212",
"3 	c #B91919",
"4 	c #BF1A1A",
"5 	c #C31A1A",
"6 	c #B11818",
"7 	c #730F0F",
"8 	c #9D1515",
"9 	c #BB1919",
"0 	c #BD1919",
"a 	c #B81919",
"b 	c #710F0F",
"c 	c #7F1111",
"d 	c #B51818",
"e 	c #B61919",
"f 	c #680E0E",
"g 	c #6A0E0E",
"h 	c #AB1717",
"i 	c #B01818",
"j 	c #A71717",
"k 	c #550B0B",
"l 	c #650E0E",
"m 	c #931414",
"n 	c #410909",
"o 	c #6F0F0F",
"p 	c #991515",
"q 	c #A01515",
"r 	c #A61616",
"s 	c #A51616",
"t 	c #6C0F0F",
"u 	c #370707",
"v 	c #9B1515",
"w 	c #881212",
"x 	c #9C1515",
"y 	c #A11616",
"z 	c #2E0606",
"A 	c #500B0B",
"B 	c #971414",
"C 	c #9F1515",
"D 	c #811111",
"E 	c #7A1010",
"F 	c #9A1515",
"G 	c #821111",
"H 	c #350707",
"I 	c #771010",
"J 	c #630D0D",
"K 	c #7E1111",
"L 	c #921414",
"M 	c #941414",
"N 	c #8C1313",
"O 	c #5F0D0D",
"P 	c #270505",
"Q 	c #310707",
"R 	c #700F0F",
"S 	c #510B0B",
"T 	c #4C0A0A",
"U 	c #400909",
"V 	c #300606",
"W 	c #280505",
"X 	c #420909",
"Y 	c #6E0F0F",
"Z 	c #961414",
"` 	c #831212",
" .	c #430909",
"                                ",
"                                ",
"                                ",
"                                ",
"                                ",
". . . + @ # $ % $ & * = . . . . ",
"- - ; > # , , , , , & ' ) ; - - ",
"! ~ ; = . . . . . . . { ] ^ / ! ",
"( _ ) : : : : : : : : : ~ < [ } ",
"| ( ] ] ] ] ] ] ] ] ] ] ] 1 2 3 ",
"4 5 5 5 5 5 5 5 5 5 5 5 5 6 7 8 ",
"9 0 0 0 0 0 0 0 0 0 0 0 0 a b c ",
"d e e e e e e e e e e e e d f g ",
"h i i i i e e e e e i i i j k l ",
"8 h h h h h h h h h h h h m n o ",
"p q r r r r r r r r r r s t u 2 ",
"v w x y y y y y y y y y w z A B ",
"C D E p v v v v v v F G u H I C ",
"C p b J K w L M N K O P Q b p C ",
"F F m R S T A T U V W X Y m F F ",
"Z Z Z m ` g S  . .S g 2 m Z Z Z ",
"                                ",
"                                ",
"                                "};
