/* XPM */
static char * title_4_inactive_xpm[] = {
"8 24 21 1",
" 	c None",
".	c #E22828",
"+	c #E43333",
"@	c #E53C3C",
"#	c #E43737",
"$	c #E32E2E",
"%	c #E22525",
"&	c #E12323",
"*	c #E12121",
"=	c #E11F1F",
"-	c #E01E1E",
";	c #DF1E1E",
">	c #DE1E1E",
",	c #DC1E1E",
"'	c #DA1D1D",
")	c #D91D1D",
"!	c #D71D1D",
"~	c #D51D1D",
"{	c #D31C1C",
"]	c #D11C1C",
"^	c #D01C1C",
"........",
"++++++++",
"@@@@@@@@",
"@@@@@@@@",
"########",
"++++++++",
"$$$$$$$$",
"........",
"%%%%%%%%",
"&&&&&&&&",
"********",
"********",
"===-----",
";;;-----",
">>>>>>>>",
",,,,,,,,",
"''''''''",
"''')))))",
"!!!!!!!!",
"!!!!!!!!",
"~~~~~~~~",
"{{{{{{{{",
"]]]]]]]]",
"^^^^^^^^"};
